<svg id="SvgjsSvg1001" width="360" height="360" xmlns="http://www.w3.org/2000/svg" version="1.1" xmlns:xlink="http://www.w3.org/1999/xlink" xmlns:svgjs="http://svgjs.com/svgjs">
  <defs id="SvgjsDefs1002"/>
  <g id="SvgjsG1008">
    <svg xmlns="http://www.w3.org/2000/svg" enable-background="new 0 0 1000 1000" viewBox="0 0 1000 1000" width="360" height="360">
      <path fill="#28019a" d="M345.7,336.4c-21.3-14.3-44.4-4.5-50.4,19.4c-1.7,6.7-2.9,16.5,1.9,22.7c9.8,13.1,23.2,19.4,39.4,20.3		c4.8,0.2,9.6,0.7,14.3,0c1.7-0.2,6-2.6,7.4-1.4c0.7,0.5,6.7,18.2,7.9,20.8c6.5,16.3,17,32.5,28.2,45.9c5,6,10.5,11.5,16.3,17.2
		c7.6,7.6,17.9,12.9,26.8,18.9c1.7,1.2,8.8,3.8,9.3,5.5c2.6,10,1.2,23.9-1,34.7c-1.9,9.8-6.2,23.7-13.4,31.1
		c-1.2,1.2-4.1,1.2-5.5,2.4c-13.1,9.8-31.3,11.5-45.4,19.8c-26,15.5-53.5,28.7-77.7,48.5c-9.1,7.4-17.4,16-25.3,24.6
		c-17.4,18.6-31.3,39.4-44.4,60.9c-4.1,6.7-10,15.1-11.9,22.7c-2.2,8.8-6.2,19.1-9.8,27.7c-4.1,10.3-13.1,42.8-5.5,50.9
		c14.6,15.5,35.1,24.1,53.8,33.2c39.7,19.8,82.7,35.1,126.2,44.9c42.3,9.3,84.6,12.9,128.1,12.9c40.9,0,80.8-8.6,120.7-16.7
		c23.4-4.8,61.2-12.9,80.5-27.2c9.8-7.4,22.2-12.7,32.7-18.9c16.3-9.8,33-21.3,46.4-34.7c3.1-3.1-2.2-19.8-3.3-24.6
		c-6-24.1-14.3-47.1-25.3-69.3c-17.2-34.4-46.1-66.2-77.2-88.4c-14.6-10.3-32.5-16.5-46.4-26.8c-5.3-4.1-14.6-8.6-20.8-10.3
		c-2.4-0.7-4.8-2.6-6.9-3.6c-10-5-20.8-9.1-30.6-13.9c-7.6-3.8-17.2-6.2-23.7-12.4c-7.4-7.4-11.7-29.9-12.9-39.4
		c-1-6.2-1.7-12.9-1.4-18.9c0-0.5,1.4-1.2,1.9-1.4c6.5-1.7,12.4-4.3,18.4-7.4c12.4-6.2,24.4-14.6,34.7-24.1
		c18.4-17.2,31.1-37.3,42.1-59.3c3.3-6.7,3.8-16,7.9-22.7c0-0.2,17-2.9,19.8-3.6c13.6-3.3,25.1-10,35.1-19.8
		c27.7-27.7-2.4-75.5-39-51.4c-2.2-2.2,0.2-9.1,0.5-11.9c0.2-4.8,0.5-9.6,0.5-14.3c0-12.2-10.8-22.7-18.4-30.6
		c-7.9-7.9-21.7-17.9-32.7-20.8c-11-2.9-21.7-9.8-32.7-12.9c-30.6-8.8-62.4-15.8-94.4-16.7c-16-0.5-30.6-0.7-46.4,1
		c-24.9,2.9-55.4,10-74.6,27.7c-3.6,3.3-7.2,6.7-10.5,10.3c-2.2,2.2-17,21-17.7,24.1c-2.2,13.4,2.9,31.1,4.1,44.4
		C345.7,328.3,347.8,334.3,345.7,336.4z" class="color28019A svgShape"/>
      <path fill="#fefefe" d="M602.8,267.8c-7.6,7.6-18.9,11.5-29.6,12.9c-30.8,4.1-43.7-4.5-60.2-29.2c-19.6,9.8-33.5,15.8-56.9,6.5
		c-7.6-3.1-15.5-10-20.3-16.3c-1.4-1.9-3.8-8.6-6-9.3c-2.9-1-14.8,0.5-17.2,2.4c-1.2,0.7-1,21.5-1.4,25.8
		c-1,12.9-5.5,30.6-13.4,41.1c-7.2,9.6-12.9,18.9-21.7,27.7c-3.1,3.1-6.9,5.7-10.5,7.9c-1.2,0.7-4.3,1-4.5,2.4
		c-1,3.8,0.7,10,1.4,13.9c1.9,13.4,4.5,26.3,8.4,39.4c19.1,67.4,75,114.2,145.8,114.2c6.9,0,13.4-3.1,19.8-4.1
		c68.3-11.5,114-95.4,111.4-160.6c0-1.4-7.4-3.1-8.8-4.1c-7.4-5.5-15.8-10.3-21.3-17.9c-7.4-10.3-10.3-23.4-12.4-35.6
		C604.2,280.3,605.7,270.7,602.8,267.8z" class="colorFEFEFE svgShape"/>
      <path fill="#f39efe" d="M666.6,326.6c15.3-7.6,25.3-11.2,40.1,1c2.6,2.2,6,5.3,6.9,8.8c1.2,5,2.4,10,2.4,15.3c0,3.6-2.6,7.6-1.4,11
		c5.7,0,11-1.7,15.8-4.1c5-2.4,9.1-4.1,13.4-8.4c16.5-16.5,4.3-49.5-7.9-65.7c-9.1-12.2-19.8-18.2-33.2-23.7
		c-6.2-2.4-13.4-3.3-19.4-6c-0.5-0.2-1-0.5-1-1c-0.5-1.9,1.4-4.5,1.9-6c1.9-8.1,2.4-18.4,2.4-26.3c0-23.7-8.4-53.1-22.2-72.6
		c-14.1-19.8-33.7-32.5-53.5-44.4c-6.2-3.6-13.4-5.3-19.4-8.8C568.4,81.9,524.7,80,500,80c-55.2,0-102.8,20.8-136.5,65.7
		C340.2,177,334,221.2,334,259c0,3.8,0.5,20.3,6.5,21.7c2.9,0.7,17-21,19.4-23.7c3.1-3.3,6-6.5,9.3-9.8c15.1-15.1,43-22.7,63.3-25.8
		c18.9-2.9,38.2-3.3,57.4-3.3c15.8,0,32,2.4,47.6,5.5c42.5,8.6,93.4,20.1,122.6,55.4c7.6,9.6,7.9,21.5,7.9,33.2
		C667.6,315.6,664.7,324.5,666.6,326.6z" class="colorF39EFE svgShape"/>
      <path fill="#fefefe" d="M534.5 797.4c-2.9 1.9-5.5 4.1-8.4 6-6.2 4.1-13.6 2.6-12.9-6 .2-3.6 6.7-6.5 9.3-8.4 6.7-5 17.4-16.3 25.1-7.4 1.4 1.7 1.9 6.2 1.9 7.9.2 15.1.2 29.9.5 44.9.2 12.2.2 24.4.5 36.6.2 11 0 22 .5 32.7 0 2.4 12.9-.2 14.3-.5 3.1-.5 7.4 0 9.8-2.4-1.2-2.4-.5-.7-.5-6 .2-16.3.5-32.3.5-48.5 0-8.8-.5-17.9-.5-26.8-.2-28.4-.5-56.6-.5-85.1 0-35.4 2.9-70.7 4.5-105.9.7-11.5 1.4-22.9 1-34.2 0-.7-12.9-7.9-14.3-8.4-1-.2-1.4 0-1.9 1-3.3 6.7-7.4 12.9-12.9 18.4-9.3 9.3-23.2 14.3-36.1 16.7-23.4 4.3-43.7-.2-62.9-12.9-6.9-4.8-14.3-10-19.4-16.7-1-1.2-2.9-6-4.5-5.5-1 .2-3.8 1.7-4.1 2.9-1.9 7.6 2.2 27 2.4 35.1.2 9.3.5 18.4 1 27.7.5 13.4 1.2 26.8 1.9 40.1 1 18.6 2.2 37.3 2.9 55.9 1.4 41.8 1.9 83.6 4.1 125.2.2 4.5.5 28.7 2.4 29.2 12.4 4.1 9.1-2.4 8.8-11.9-.2-8.4-.2-17-.5-25.3-.7-31.3-4.8-50.7 16.7-72.2 2.6-2.6 7.9-6 11.5-6.9 33.7-8.4 31.5 39.7 32 59.7.2 15.8.5 31.8.5 47.6 0 4.3-3.3 12.7 1 12.9 6.5.5 15.8 0 22.7-.5 2.2-.2 6.5.7 6.5-1.4.2-19.4 0-39 0-58.3 0-11-.2-22-.5-32.7C535.7 808.6 538.3 801.5 534.5 797.4zM410.9 595c-3.1-1.2-13.4 4.1-13.4 7.9.2 12.9.5 25.6.5 38.5 0 12.4-.7 24.6-1 37-1.2 49.5-2.4 98.5-2.9 147.9-.2 21-3.1 46.8-.5 67.9.2 2.2 21.7 5.5 25.3 6 .5 0 5 1.7 5 0 1.2-13.4-.7-27.7-1.4-41.1-1-19.6-1.7-39.2-2.4-58.8-.7-28.7-1.7-57.1-3.3-85.6-1.9-32-2.6-64-3.6-96.3C413.5 613.2 416.4 597.1 410.9 595z" class="colorFEFEFE svgShape"/>
      <path fill="#fefefe" d="M459.2 510.2c-4.8 4.8-.5 13.6-.5 20.3 0 16-8.6 28.4-15.3 42.1 8.4 8.4 18.9 22.7 32 25.8 10.3 2.6 20.6 4.5 31.5 4.5 12.4 0 32.3-11.9 39.4-21.7.7-1.2 3.1-4.1 2.4-5.5-4.3-8.6-9.1-15.5-11.5-25.3-2.2-8.6-3.1-17.4-3.6-26.3-.2-2.4.7-6-1.4-6.9-3.3-1.2-11.7 1.7-15.3 1.9-5.5.2-11 .5-16.7.5C487.4 519.5 470.4 515.9 459.2 510.2zM592.3 600.5c-3.3 1.4-1 7.4-1 11 0 5-.2 9.8-.5 14.8-1.2 32.5-2.4 64.8-2.9 97-.5 34.4-.7 63.8-.5 98.5.2 25.3 0 50.9.5 76.2 0 1.4 3.1 1 3.3 1 2.6-.2 23.9-4.1 24.1-5.5 1-10.8-.5-22.7-1-33.2-.7-22.5-2.4-44.7-4.1-67.2-3.1-42.8-4.8-85.8-6-128.6-.5-14.3-1-28.7-1.4-43-.2-5.5 0-10.8-.5-16.3C602.3 604.3 594 599.8 592.3 600.5z" class="colorFEFEFE svgShape"/>
      <path fill="#28019a" d="M508.6,144.8c-23.7,1.2-34.4,21.7-40.6,43.5c-1.9,6.9-6.5,15.3,0.5,20.8c0.7,0.7,16.5,1.2,18.9,1.4
		c16.5,1,33,1,49.5,1c13.9,0,10.3-23.4,9.3-31.1C542.8,157.2,530.9,143.8,508.6,144.8z" class="color28019A svgShape"/>
      <path fill="#fefefe" d="M480 801.7c-24.4 6.5-21.7 33.9-22.2 55-.2 11.9-.5 23.7-.5 35.6 0 1.9-.5 12.9 1 13.4 8.4 2.4 23.2 1.7 31.5 1.4.5 0 1-.5 1-1 .2-6 0-11.9 0-17.9 0-7.6-.2-15.5-.5-23.2-.2-6-.2-11.7-.5-17.7 0-2.9-.2-6-.5-8.8-.2-2.4-.2-4.5-.5-6.9C488.3 828.2 486.2 800 480 801.7zM658.5 363.2c9.3-4.5 17.2-9.8 25.3-16.3 1.7-1.2 3.8-.5 4.5 1.4 1.4 3.1-3.1 6-5 7.4-6.9 5.3-14.6 9.1-22.2 12.9-8.1 4.1-4.3 13.1-7.9 20.3 4.1 4.1 16-.5 21.3-2.4 16-5.3 29.6-17.4 31.5-34.7.5-4.3.7-10.3-2.4-13.9-13.1-15.3-27.7-9.8-40.1 2.9C659.4 345 654.9 359.6 658.5 363.2zM323.4 339c-12.4 2.2-25.3 21.3-16.3 33.2 7.6 10 20.6 14.3 32.7 15.3 3.6.2 12.2 1.7 15.8-1.9-1-1.7-.7-10.8-3.3-11-10.3-1.2-17-2.4-25.8-6.9-2.6-1.4-7.6-6.2-2.4-8.4 4.5-1.7 23.7 13.9 27.2 6.5.7-1.4-.7-4.8-1-6.5C349 346.9 338.7 341.2 323.4 339z" class="colorFEFEFE svgShape"/>
      <path fill="#28019a" d="M593.7,326.6c-14.3,5.5,6.2,43.5-17.2,43.5c-13.1,0-12.9-28-13.4-33.7c-0.2-3.6-7.2-7.2-10.3-4.5
		c-3.1,2.9-3.6,2.6-3.6,6c-0.2,5.3-0.5,10.5-0.5,15.8c0,13.9,14.3,31.1,28.2,31.1c26.8,0,26.8-35.1,26.8-52.3
		C603.8,326.9,596.6,325.4,593.7,326.6z" class="color28019A svgShape"/>
      <path fill="#f39efe" d="M500.3,348.8c-10.5,1.9-10.3,11.9-12.9,21.3c-5.7,19.8-3.6,34.2,19.8,34.2c6.7,0,14.1-8.8,14.8-14.8
		C523.2,376.8,515.8,346,500.3,348.8z" class="colorF39EFE svgShape"/>
      <path fill="#28019a" d="M445.1 323.8c-13.1 3.1 6.2 39.9-13.4 44.9-19.8 5-18.2-18.6-20.8-31.1-1-3.8-6.5-10.8-11-6.9-6.2 5-4.1 12.2-3.3 19.4 2.2 17.4 13.1 36.6 33.7 32.3 17.4-3.6 22.5-20.1 23.2-35.6C453.9 337.6 457.5 320.9 445.1 323.8zM527 432c-6.7-.5-3.6 6.5-6.9 10.3-4.3 5-8.6 6.5-15.3 6.5-9.3 0-15.1-16.3-22.2-11.9-9.8 6 1 15.8 5.5 20.3 5.7 5.7 18.9 6.5 25.3 5C524.7 459.7 546.9 433.4 527 432z" class="color28019A svgShape"/>
      <path fill="#4523a7" d="M684.8,345.5c-2.4,1.2-4.3,3.8-6.5,5.5c-4.8,3.6-10.3,6-15.3,9.3c0.5,1.4,2.9,5.7,4.5,6
		c1.9,0.5,21.5-14.8,21.7-15.8C689.8,347.4,689.1,348.1,684.8,345.5z" class="color4523A7 svgShape"/>
    </svg>
  </g>
</svg>
