<svg width="142" height="131" viewBox="0 0 142 131" fill="none" xmlns="http://www.w3.org/2000/svg">
<g clip-path="url(#clip0_1_2)">
<path fill-rule="evenodd" clip-rule="evenodd" d="M131.838 35.7901H131.847V35.7931C134.402 36.4102 136.479 38.4946 136.966 41.2543L141.233 65.5057C141.72 68.2655 140.477 70.9362 138.286 72.3913C138.283 72.3974 138.277 72.3974 138.277 72.3974C137.634 72.8241 136.914 73.1495 136.129 73.3368L136.124 73.3379C135.982 73.3712 135.839 73.4046 135.698 73.4289L104.171 79.0006C93.774 80.8363 83.86 73.8801 82.029 63.4643C80.197 53.0454 87.138 43.1115 97.533 41.2758L129.059 35.7041C129.209 35.6765 129.362 35.6581 129.512 35.6427C130.309 35.5506 131.093 35.609 131.838 35.7901ZM111.585 58.2405C111.465 57.562 111.285 56.9082 111.052 56.285L111.055 56.2819C109.244 51.4439 104.199 48.4325 98.936 49.3626C95.183 50.0257 92.221 52.5368 90.808 55.7969C90.027 57.6019 89.724 59.6372 90.027 61.7155C90.043 61.826 90.061 61.9365 90.079 62.0439C90.101 62.1637 90.122 62.2772 90.147 62.3939C90.576 64.4445 91.559 66.2526 92.91 67.674C95.345 70.2434 98.982 71.5818 102.728 70.9187C107.979 69.9917 111.689 65.4453 111.753 60.288C111.76 59.6127 111.704 58.9189 111.585 58.2405Z" fill="white"/>
<path d="M140.59 85.8034V85.8126C140.673 86.4972 140.722 87.1725 140.752 87.851C140.752 87.851 140.752 87.8571 140.752 87.8602C141.325 101.594 131.991 114.006 118.374 117.051L43.5483 130.272C28.4361 132.243 14.3074 121.959 11.633 106.77L1.10383 46.9275C-1.64407 31.3053 8.76563 16.4045 24.3617 13.6478L96.598 0.883579C110.899 -1.64287 124.586 6.92187 128.881 20.4106C128.989 20.7452 129.087 21.0798 129.182 21.4175C129.641 23.0629 129.077 24.871 127.68 25.8472C127.209 26.1756 126.66 26.412 126.057 26.5164L95.86 31.8517C87.883 33.2607 81.263 37.8501 77.069 44.0879C73.059 50.0464 71.263 57.4999 72.605 65.1314C73.947 72.7629 78.184 79.1634 83.992 83.3844C90.058 87.8049 97.842 89.8433 105.816 88.4342L136.013 83.0989C138.026 82.7428 139.953 83.9278 140.596 85.8065L140.59 85.8034Z" fill="white"/>
</g>
<defs>
<clipPath id="clip0_1_2">
<rect width="142" height="131" fill="white"/>
</clipPath>
</defs>
</svg>
